<svg width="300" height="143" viewBox="0 0 300 143" fill="none" xmlns="http://www.w3.org/2000/svg">
<path d="M92.6234 95.6428C92.9194 101.587 87.3263 106.696 80.1308 107.054C72.9354 107.413 66.8623 102.884 66.5663 96.9404C66.2703 90.9963 71.8634 85.8872 79.0589 85.5289C86.2544 85.1706 92.3274 89.6987 92.6234 95.6428Z" fill="black"/>
<path d="M67.0428 83.6934C67.203 86.9113 65.5576 89.6083 63.3677 89.7173C61.1778 89.8264 59.2726 87.3062 59.1123 84.0883C58.9521 80.8705 60.5975 78.1735 62.7874 78.0644C64.9773 77.9554 66.8825 80.4756 67.0428 83.6934Z" fill="black"/>
<path d="M76.9167 76.7123C77.0769 79.9302 75.4316 82.6271 73.2416 82.7362C71.0517 82.8452 69.1465 80.3251 68.9863 77.1072C68.826 73.8894 70.4714 71.1924 72.6613 71.0833C74.8513 70.9743 76.7565 73.4944 76.9167 76.7123Z" fill="black"/>
<path d="M87.1149 76.2042C87.2752 79.422 85.6298 82.119 83.4399 82.2281C81.2499 82.3371 79.3447 79.8169 79.1845 76.5991C79.0243 73.3812 80.6696 70.6842 82.8596 70.5752C85.0495 70.4661 86.9547 72.9863 87.1149 76.2042Z" fill="black"/>
<path d="M97.6342 82.1704C97.7944 85.3882 96.149 88.0852 93.9591 88.1943C91.7692 88.3033 89.864 85.7831 89.7037 82.5653C89.5435 79.3474 91.1889 76.6504 93.3788 76.5414C95.5687 76.4323 97.4739 78.9525 97.6342 82.1704Z" fill="black"/>
<path d="M58.6312 68.1564C55.2459 73.0512 47.6981 73.6972 41.7728 69.5992C35.8474 65.5012 33.7883 58.2111 37.1736 53.3163C40.5589 48.4214 48.1067 47.7754 54.032 51.8734C59.9574 55.9714 62.0165 63.2615 58.6312 68.1564Z" fill="black"/>
<path d="M45.6195 43.0995C43.7868 45.7493 40.8393 46.8864 39.0359 45.6392C37.2326 44.392 37.2563 41.2328 39.0889 38.5829C40.9216 35.9331 43.8691 34.796 45.6725 36.0433C47.4759 37.2905 47.4521 40.4497 45.6195 43.0995Z" fill="black"/>
<path d="M57.7012 43.5752C55.8686 46.225 52.921 47.3621 51.1177 46.1148C49.3143 44.8676 49.338 41.7084 51.1706 39.0586C53.0033 36.4088 55.9508 35.2717 57.7542 36.5189C59.5576 37.7661 59.5339 40.9253 57.7012 43.5752Z" fill="black"/>
<path d="M66.1 49.3828C64.2674 52.0326 61.3198 53.1697 59.5164 51.9225C57.7131 50.6752 57.7368 47.5161 59.5694 44.8662C61.4021 42.2164 64.3496 41.0793 66.153 42.3265C67.9564 43.5737 67.9327 46.7329 66.1 49.3828Z" fill="black"/>
<path d="M70.8093 60.5207C68.9767 63.1705 66.0291 64.3076 64.2258 63.0604C62.4224 61.8132 62.4461 58.654 64.2788 56.0041C66.1114 53.3543 69.059 52.2172 70.8623 53.4644C72.6657 54.7117 72.642 57.8708 70.8093 60.5207Z" fill="black"/>
<path d="M117.261 92.7407C114.422 91.3413 112.103 89.522 110.304 87.2827C108.504 85.0039 107.165 82.5645 106.285 79.9653C105.445 77.3267 105.025 74.7676 105.025 72.2886V70.9688C105.025 68.25 105.465 65.5708 106.345 62.9316C107.225 60.2529 108.564 57.8335 110.363 55.6743C112.203 53.5151 114.502 51.7959 117.261 50.5166C120.06 49.1968 123.358 48.5371 127.157 48.5371C131.116 48.5371 134.614 49.2769 137.653 50.7563C140.692 52.2358 143.111 54.2949 144.911 56.9341C146.75 59.5332 147.83 62.5918 148.149 66.1108H138.253C137.974 64.3511 137.333 62.8521 136.334 61.6123C135.334 60.3726 134.035 59.4131 132.436 58.7334C130.876 58.0537 129.116 57.7139 127.157 57.7139C125.198 57.7139 123.459 58.0537 121.939 58.7334C120.42 59.4131 119.141 60.3726 118.101 61.6123C117.769 62.0234 117.461 62.4609 117.178 62.9248C117.1 63.0527 117.023 63.1826 116.949 63.3145L116.846 63.5005C116.77 63.6416 116.695 63.7847 116.623 63.9297C116.509 64.1587 116.399 64.3931 116.296 64.6333C116.24 64.7627 116.187 64.8931 116.134 65.0254C116.091 65.1313 116.049 65.2388 116.008 65.3472C115.922 65.5771 115.84 65.8115 115.762 66.0508C115.241 67.73 114.981 69.6094 114.981 71.6885C114.981 73.728 115.241 75.6069 115.762 77.3267C115.823 77.5103 115.887 77.6914 115.953 77.8701L116.056 78.1353C116.59 79.4849 117.291 80.6948 118.16 81.7646C119.24 83.0044 120.56 83.9639 122.119 84.6436C123.679 85.2837 125.458 85.6035 127.457 85.6035C130.496 85.6035 133.055 84.8638 135.135 83.3843C137.254 81.9048 138.533 79.8657 138.973 77.2666H148.81C148.449 80.4653 147.37 83.4043 145.57 86.0835C143.812 88.7222 141.392 90.8413 138.313 92.4409C135.274 94.0005 131.655 94.7803 127.457 94.7803C123.499 94.7803 120.1 94.1001 117.261 92.7407Z" fill="black"/>
<path d="M152.216 93.6406V49.8564H161.873V93.6406H152.216Z" fill="black"/>
<path d="M170.505 91.0015C172.544 93.4404 175.463 94.6602 179.262 94.6602H179.682C182.161 94.6602 184.767 94.7202 186.446 93.6406C187.603 92.8975 189.2 91.8501 190.357 90.5518V93.6406H197.975V60.7725H188.379V80.0854C188.379 81.9248 187.839 83.3843 186.759 84.4639C185.68 85.5435 184.28 86.0835 182.561 86.0835C180.881 86.0835 179.542 85.5635 178.542 84.5239C177.543 83.4844 177.043 82.085 177.043 80.3252V60.7725H167.446V79.8457C167.446 84.8037 168.466 88.5225 170.505 91.0015Z" fill="black"/>
<path fill-rule="evenodd" clip-rule="evenodd" d="M218.43 94.7803C215.631 94.7803 213.151 94.3003 210.992 93.3408C208.873 92.3809 207.094 91.1016 205.654 89.502C204.255 87.8628 203.175 86.0435 202.415 84.0439C201.695 82.0049 201.336 79.9253 201.336 77.8062V76.6069C201.336 74.4077 201.695 72.3081 202.415 70.3091C203.175 68.27 204.255 66.4507 205.654 64.8511C207.054 63.2515 208.793 61.9922 210.872 61.0723C212.991 60.1128 215.391 59.6328 218.069 59.6328C221.588 59.6328 224.547 60.4326 226.946 62.0322C229.386 63.5918 231.245 65.6509 232.524 68.21C233.804 70.729 234.443 73.4878 234.443 76.4868V79.7256H210.437C210.574 80.6997 210.8 81.5996 211.112 82.4248C211.672 83.8643 212.552 84.9839 213.751 85.7832C214.951 86.583 216.51 86.9829 218.43 86.9829C220.188 86.9829 221.628 86.6431 222.748 85.9634C223.273 85.644 223.72 85.2896 224.087 84.8999C224.502 84.4595 224.815 83.9746 225.027 83.4443H233.844C233.364 85.6436 232.425 87.6025 231.024 89.3223C229.625 91.0415 227.866 92.3809 225.747 93.3408C223.628 94.3003 221.188 94.7803 218.43 94.7803ZM210.558 74.0127C210.541 74.0967 210.525 74.1816 210.511 74.2676H225.33C225.191 73.3457 224.97 72.5063 224.667 71.7485C224.107 70.3491 223.268 69.2896 222.148 68.5698C221.068 67.8101 219.709 67.4302 218.069 67.4302C217.763 67.4302 217.464 67.4429 217.174 67.4683C216.887 67.4937 216.608 67.5312 216.338 67.5815C215.391 67.7573 214.549 68.0869 213.812 68.5698C212.651 69.3296 211.771 70.4492 211.172 71.9287C211.109 72.0791 211.05 72.2334 210.993 72.3911C210.935 72.5542 210.881 72.7212 210.83 72.8921C210.725 73.2485 210.634 73.6221 210.558 74.0127Z" fill="black"/>
<path d="M239.303 91.7812C241.942 93.7007 245.601 94.6602 250.279 94.6602C253.238 94.6602 255.817 94.2402 258.017 93.4004C260.216 92.521 261.915 91.2812 263.114 89.6821C264.314 88.0425 264.914 86.123 264.914 83.9238C264.914 80.8853 263.794 78.4663 261.555 76.6665C259.315 74.8672 256.177 73.748 252.139 73.3081L249.56 73.0679C247.84 72.8682 246.601 72.5283 245.841 72.0483C245.532 71.8535 245.286 71.6226 245.103 71.355C244.835 70.9639 244.701 70.4951 244.701 69.9492C244.701 68.9897 245.141 68.23 246.021 67.6699C246.9 67.1104 248.08 66.8306 249.56 66.8306C251.438 66.8306 252.858 67.2104 253.817 67.9697C254.777 68.6895 255.337 69.5894 255.497 70.6689H264.014C263.895 67.1504 262.534 64.4712 259.936 62.6318C257.337 60.7524 253.918 59.813 249.68 59.813C247.04 59.813 244.682 60.2129 242.602 61.0127C240.562 61.812 238.963 62.9917 237.804 64.5513C236.645 66.1108 236.064 68.0498 236.064 70.3691C236.064 73.168 237.044 75.4673 239.003 77.2666C241.003 79.0659 243.981 80.1655 247.94 80.5654L250.52 80.8052C252.679 81.0449 254.178 81.4648 255.018 82.0649C255.857 82.6245 256.277 83.3843 256.277 84.3438C256.277 85.4233 255.717 86.2632 254.598 86.8628C253.518 87.4229 252.139 87.7026 250.459 87.7026C248.26 87.7026 246.601 87.3027 245.48 86.5029C244.401 85.6636 243.781 84.7236 243.622 83.6841H235.104C235.265 87.1631 236.664 89.8618 239.303 91.7812Z" fill="black"/>
</svg>
